<?xml version="1.0" standalone="no"?>
<!DOCTYPE svg PUBLIC "-//W3C//DTD SVG 20010904//EN"
 "http://www.w3.org/TR/2001/REC-SVG-20010904/DTD/svg10.dtd">
<svg version="1.0" xmlns="http://www.w3.org/2000/svg"
 width="600.000000pt" height="600.000000pt" viewBox="0 0 600.000000 600.000000"
 preserveAspectRatio="xMidYMid meet">
<g transform="translate(0.000000,600.000000) scale(0.100000,-0.100000)"
fill="#000000" stroke="none">
<path d="M2850 5649 c-1178 -109 -2159 -924 -2433 -2024 -58 -232 -71 -349
-71 -615 -1 -246 7 -322 51 -535 77 -371 270 -773 519 -1085 76 -94 275 -298
369 -377 350 -293 816 -514 1275 -603 210 -40 271 -45 565 -44 247 0 310 4
423 22 491 80 901 252 1290 542 146 109 373 329 484 470 373 473 567 1023 568
1606 1 935 -512 1799 -1353 2279 -503 287 -1106 417 -1687 364z m705 -38 c508
-82 986 -295 1365 -609 94 -77 282 -265 348 -347 32 -38 63 -76 70 -83 28 -30
143 -203 197 -297 132 -229 229 -482 285 -745 72 -336 69 -730 -6 -1070 -192
-865 -837 -1589 -1699 -1909 -747 -276 -1584 -230 -2290 129 -818 414 -1365
1191 -1456 2068 -19 183 -7 526 25 695 95 518 330 976 689 1346 454 468 1030
752 1690 836 170 21 611 14 782 -14z"/>
<path d="M3001 5366 c-10 -28 -20 -57 -22 -63 -2 -7 -15 14 -29 47 -25 59 -25
60 -65 59 -22 -1 -32 -3 -22 -6 14 -4 17 -17 17 -88 0 -57 -4 -85 -12 -88 -7
-3 2 -6 20 -6 17 -1 32 4 32 10 0 5 -4 7 -10 4 -12 -8 -11 -15 -16 75 l-4 75
26 -55 c14 -30 30 -66 36 -80 10 -24 12 -21 34 40 42 111 43 112 43 28 1 -52
-3 -78 -11 -81 -7 -3 30 -6 82 -8 52 -1 108 -2 123 -3 32 -2 32 -2 41 39 l6
30 -21 -27 c-14 -19 -30 -28 -50 -28 -27 0 -29 2 -29 41 0 43 22 52 28 11 6
-43 21 -21 20 31 0 44 -2 48 -11 30 -20 -46 -49 -16 -31 31 9 24 55 20 61 -4
7 -28 23 -25 23 5 0 21 -5 25 -32 26 -18 0 -53 2 -76 4 -34 3 -41 1 -30 -8 10
-9 13 -33 10 -90 -4 -78 -4 -78 -30 -75 -26 3 -27 5 -30 82 -2 57 1 82 10 87
8 5 -2 8 -24 7 -36 -1 -39 -4 -57 -52z"/>
<path d="M2788 5403 c-23 -4 -30 -12 -39 -46 -23 -86 -23 -86 -55 -29 -27 48
-32 52 -66 52 -21 0 -38 -4 -38 -10 0 -5 6 -10 14 -10 17 0 38 -139 23 -157
-7 -10 -3 -13 16 -13 14 0 29 5 32 10 3 6 0 10 -8 10 -11 0 -18 20 -25 68 -5
37 -8 68 -7 70 2 2 20 -29 41 -67 21 -39 41 -71 44 -71 3 0 14 37 25 82 l20
83 11 -70 c11 -62 10 -72 -4 -84 -15 -12 -13 -13 17 -7 18 3 41 6 50 6 12 0
13 2 3 9 -20 12 -38 147 -22 166 7 8 9 14 4 14 -5 -1 -21 -4 -36 -6z"/>
<path d="M3303 5399 c13 -8 16 -19 13 -42 -3 -18 -8 -53 -11 -79 -4 -32 -11
-48 -23 -51 -9 -3 -3 -5 13 -6 17 -1 41 -4 55 -7 21 -5 22 -4 8 6 -19 12 -23
46 -9 69 7 11 15 4 32 -32 13 -26 28 -47 35 -47 7 0 20 -3 29 -6 11 -5 8 8
-14 45 -21 35 -26 51 -17 51 42 0 44 74 3 89 -36 13 -135 22 -114 10z m101
-31 c14 -23 -3 -52 -33 -56 -22 -4 -26 12 -15 56 7 26 31 26 48 0z"/>
<path d="M3527 5359 c-23 -13 -47 -62 -47 -94 0 -39 50 -85 92 -85 19 0 43 7
54 15 23 17 14 19 -21 3 -34 -15 -71 2 -78 37 -7 41 11 93 38 111 23 15 27 15
50 0 14 -9 25 -26 25 -37 0 -30 17 -14 22 21 4 25 2 29 -13 25 -9 -3 -20 -1
-24 5 -8 13 -75 13 -98 -1z"/>
<path d="M2447 5339 c-11 -6 -25 -26 -33 -45 -12 -30 -12 -39 1 -70 20 -47 41
-63 87 -64 29 0 42 7 63 32 23 27 26 39 22 72 -10 70 -83 108 -140 75z m77
-28 c26 -49 31 -105 11 -124 -25 -25 -43 -21 -65 16 -22 36 -27 106 -8 125 20
20 47 13 62 -17z"/>
<path d="M3693 5338 c14 -11 15 -19 8 -48 -6 -19 -15 -55 -21 -78 -8 -31 -15
-42 -26 -38 -8 3 -14 2 -14 -2 0 -4 20 -12 45 -18 33 -7 42 -7 35 1 -6 7 -6
25 0 46 5 19 14 53 20 77 7 28 16 42 28 43 9 0 -5 7 -33 14 -63 18 -62 18 -42
3z"/>
<path d="M2340 5310 c0 -5 -14 -10 -31 -10 -45 0 -89 -47 -89 -95 0 -50 44
-95 93 -95 39 0 87 32 87 58 -1 13 -6 10 -21 -10 -42 -57 -102 -28 -116 56
-10 65 55 103 93 54 l16 -23 -6 25 c-3 14 -6 31 -6 38 0 6 -4 12 -10 12 -5 0
-10 -4 -10 -10z"/>
<path d="M3857 5268 c-9 -13 -37 -46 -64 -75 -48 -51 -48 -52 -26 -62 14 -7
24 -7 28 -1 4 6 1 10 -4 10 -13 0 -14 10 -3 28 13 19 72 -5 72 -29 0 -11 -7
-19 -17 -19 -10 0 27 -18 82 -39 55 -21 107 -42 116 -45 11 -5 21 1 33 18 23
35 20 41 -9 18 -27 -21 -63 -19 -72 4 -8 22 40 136 60 142 14 3 8 9 -23 23
-51 23 -56 23 -41 5 10 -11 6 -29 -16 -82 -15 -37 -32 -69 -38 -71 -25 -8 -35
17 -41 105 -4 51 -10 92 -14 92 -4 0 -15 -10 -23 -22z m-11 -85 c-3 -3 -12 -3
-21 1 -14 5 -14 8 2 30 l18 24 3 -25 c2 -14 1 -27 -2 -30z"/>
<path d="M1742 5231 c-11 -7 -11 -9 0 -14 9 -3 15 1 15 9 0 8 -1 14 -1 14 -1
0 -7 -4 -14 -9z"/>
<path d="M1992 5186 c-77 -27 -62 -100 23 -111 71 -10 79 -19 49 -49 -21 -21
-40 -20 -64 4 -12 12 -20 15 -20 8 1 -18 29 -66 30 -50 0 6 11 12 25 12 44 0
79 53 57 86 -12 18 -49 34 -79 34 -37 0 -57 18 -42 37 16 19 56 16 69 -4 9
-15 10 -14 4 7 -9 36 -15 39 -52 26z"/>
<path d="M4200 5075 c-41 -35 -78 -61 -82 -59 -4 3 -8 1 -8 -4 0 -5 12 -14 26
-21 23 -10 25 -9 19 8 -8 27 11 35 46 21 20 -9 28 -18 25 -27 -4 -8 -6 -19 -6
-24 0 -4 -8 -6 -17 -2 -29 10 -12 -2 58 -39 53 -29 66 -33 62 -19 -2 10 11 41
29 71 l33 53 7 -89 c5 -49 9 -93 11 -98 1 -4 23 25 49 65 25 41 51 73 57 72
21 -5 11 14 -13 25 -20 9 -23 8 -19 -7 2 -10 -6 -35 -19 -57 l-23 -39 -3 35
c-6 96 -13 117 -37 128 -19 9 -23 8 -19 -2 4 -11 -52 -116 -74 -138 -5 -5 -16
-2 -25 4 -15 12 -16 24 -8 108 5 52 8 96 7 97 0 1 -35 -27 -76 -62z m27 -52
c-3 -2 -14 1 -25 8 -20 12 -20 13 2 30 20 17 21 17 24 -8 2 -14 1 -27 -1 -30z"/>
<path d="M1822 5101 c-57 -31 -76 -45 -53 -39 22 5 94 -131 80 -148 -23 -28
-45 -14 -83 51 -21 35 -35 69 -31 75 9 15 0 12 -39 -11 -39 -23 -45 -32 -20
-27 20 4 98 -117 90 -139 -4 -9 9 -5 37 11 23 13 72 42 108 63 l67 38 -13 30
-13 30 -1 -26 c-1 -25 -28 -59 -47 -59 -5 0 -17 13 -27 29 -21 36 -5 52 25 24
23 -19 22 -17 -7 40 -21 42 -34 48 -28 13 7 -37 -12 -39 -30 -2 -15 33 -15 34
9 44 25 12 54 7 54 -9 0 -5 5 -9 10 -9 6 0 3 11 -6 25 -9 14 -19 25 -23 25 -3
-1 -30 -14 -59 -29z"/>
<path d="M2125 5080 c-9 -15 5 -32 22 -26 13 5 14 0 9 -26 -5 -31 -5 -32 9
-14 18 23 18 31 5 57 -11 20 -35 25 -45 9z"/>
<path d="M2810 5070 c-395 -48 -783 -201 -1096 -432 -128 -95 -345 -308 -433
-426 -404 -539 -516 -1203 -310 -1834 40 -121 151 -349 226 -463 217 -328 491
-568 858 -750 335 -166 635 -235 1025 -235 390 0 686 68 1025 235 439 216 774
548 981 970 207 424 257 894 144 1347 -92 369 -278 688 -562 964 -284 277
-622 466 -1003 563 -203 51 -301 63 -545 66 -129 2 -269 0 -310 -5z m455 -10
c307 -28 554 -95 820 -225 644 -312 1073 -888 1170 -1568 19 -132 19 -393 0
-526 -45 -316 -141 -567 -320 -836 -94 -140 -122 -173 -269 -320 -345 -344
-778 -554 -1291 -627 -136 -19 -485 -16 -625 5 -649 100 -1191 437 -1538 957
-383 575 -431 1332 -123 1950 211 424 542 748 986 966 368 179 794 260 1190
224z"/>
<path d="M3394 4452 c4 -3 14 -7 22 -8 9 -1 13 0 10 4 -4 3 -14 7 -22 8 -9 1
-13 0 -10 -4z"/>
<path d="M1562 4427 c10 -8 14 -18 10 -22 -4 -5 -1 -5 6 -1 17 10 15 14 -10
26 -21 10 -21 10 -6 -3z"/>
<path d="M3845 4412 c-145 -50 -233 -146 -253 -277 -17 -107 18 -192 99 -240
46 -27 169 -28 217 -2 33 18 112 95 112 109 0 16 -17 7 -46 -23 -87 -93 -226
-75 -254 33 -19 68 16 204 71 285 88 127 229 130 261 6 6 -24 13 -43 17 -43 3
0 15 38 27 85 20 86 18 94 -15 73 -14 -8 -29 -8 -64 0 -63 16 -113 14 -172 -6z
m225 -49 c0 -7 -4 -13 -9 -13 -5 0 -11 6 -14 13 -3 8 1 14 9 14 8 0 14 -6 14
-14z m-260 -4 c0 -4 -3 -9 -8 -11 -12 -5 -72 -101 -78 -125 -4 -13 -10 -23
-16 -23 -5 0 -6 -4 -3 -10 3 -5 2 -18 -4 -28 -13 -24 -22 -152 -10 -152 5 0 9
-9 9 -20 0 -10 12 -32 28 -48 31 -33 39 -54 17 -46 -8 4 -12 11 -9 16 4 6 1 8
-7 6 -25 -9 -68 21 -89 62 -29 57 -27 169 4 232 13 26 26 44 30 41 4 -4 5 -1
2 7 -3 9 16 32 50 61 51 42 84 57 84 38z"/>
<path d="M3640 4180 c-6 -11 -8 -20 -6 -20 3 0 10 9 16 20 6 11 8 20 6 20 -3
0 -10 -9 -16 -20z"/>
<path d="M4330 4218 c-207 -249 -270 -318 -293 -318 -9 0 -17 -4 -17 -10 0 -6
35 -10 85 -10 83 0 111 11 60 24 -14 4 -25 12 -25 20 0 7 21 41 47 75 l47 61
81 -2 80 -3 -3 -55 c-4 -63 -24 -100 -52 -100 -11 0 -20 -4 -20 -10 0 -11 222
-14 233 -3 4 3 -3 11 -16 18 -22 11 -22 12 -19 230 1 121 4 237 7 258 3 25 0
37 -8 37 -7 0 -91 -96 -187 -212z m163 4 c-3 -75 -6 -176 -7 -224 l-1 -88 -35
0 -35 0 3 87 c1 49 5 125 8 171 4 59 2 87 -7 98 -10 12 -8 19 12 40 12 13 29
22 36 20 7 -3 10 1 6 10 -3 7 0 14 7 14 6 0 8 5 4 12 -4 6 -3 8 4 4 7 -4 9
-51 5 -144z m-91 -49 l-4 -81 -69 -4 c-38 -2 -69 -2 -69 -1 0 4 144 172 146
170 0 -1 -2 -39 -4 -84z"/>
<path d="M1706 4413 c-3 -4 8 -12 26 -18 27 -9 32 -15 30 -35 -5 -51 -113
-406 -131 -430 -10 -14 -30 -26 -44 -28 -15 -2 -27 -8 -27 -13 0 -12 267 -12
275 0 3 5 -9 11 -27 13 -29 3 -33 7 -36 33 -1 17 11 73 26 125 l28 95 45 -3
c51 -4 83 -33 76 -69 -8 -42 12 -34 24 9 6 24 20 70 30 103 10 33 19 63 19 68
0 16 -17 6 -30 -17 -15 -30 -62 -54 -116 -59 l-41 -5 31 104 30 104 46 0 c97
0 150 -32 150 -92 0 -36 18 -36 26 0 3 15 12 48 20 75 l13 47 -218 0 c-120 0
-221 -3 -225 -7z m137 -101 c-14 -43 -26 -95 -28 -117 -1 -21 -8 -41 -14 -43
-6 -2 -11 -13 -11 -25 0 -11 -8 -29 -17 -40 -10 -11 -13 -17 -6 -13 9 5 8 -7
-3 -41 -8 -26 -18 -65 -21 -86 -6 -37 -6 -38 -49 -36 -24 2 -41 6 -38 11 3 5
10 5 16 2 6 -4 8 -2 4 4 -3 6 -1 23 5 39 7 15 11 38 10 51 0 13 3 21 8 18 5
-3 9 0 8 7 -1 30 4 48 12 43 4 -3 6 6 3 21 -3 17 -1 24 6 19 6 -4 10 1 10 11
0 10 9 53 21 96 11 42 24 94 27 115 7 43 15 50 53 44 l28 -4 -24 -76z m260 62
c-6 -17 -23 -9 -23 11 0 8 6 12 14 9 8 -3 12 -12 9 -20z m-138 -204 c3 -5 1
-10 -4 -10 -6 0 -11 5 -11 10 0 6 2 10 4 10 3 0 8 -4 11 -10z"/>
<path d="M2210 4410 c0 -5 11 -10 24 -10 51 0 50 -15 -16 -244 -35 -123 -70
-225 -80 -236 -10 -11 -30 -20 -43 -20 -14 0 -25 -4 -25 -10 0 -6 52 -10 135
-10 127 0 172 10 105 24 -23 4 -30 11 -30 29 0 12 27 115 60 227 61 210 76
240 121 240 10 0 19 5 19 10 0 6 -52 10 -135 10 -83 0 -135 -4 -135 -10z m176
-23 c4 -3 -3 -21 -14 -39 -11 -18 -18 -38 -15 -44 2 -6 -3 -17 -11 -23 -8 -7
-12 -20 -9 -28 5 -12 3 -14 -7 -8 -8 5 -11 4 -6 -3 3 -6 -3 -44 -15 -84 -11
-40 -23 -82 -26 -93 -2 -11 -7 -27 -11 -35 -7 -19 -14 -58 -15 -91 -1 -23 -6
-26 -42 -28 -31 -1 -42 2 -42 13 0 8 4 13 9 10 4 -3 8 7 8 22 0 15 8 36 18 47
9 11 11 17 5 13 -19 -11 -16 2 9 43 20 33 20 35 3 21 -19 -14 -19 -14 -2 6 9
11 17 27 17 34 0 27 53 200 61 200 5 0 5 7 2 17 -5 12 -3 14 8 9 11 -6 10 -4
-1 6 -30 26 -20 43 26 42 24 0 47 -3 50 -7z"/>
<path d="M2291 4264 c0 -11 3 -14 6 -6 3 7 2 16 -1 19 -3 4 -6 -2 -5 -13z"/>
<path d="M2530 4411 c0 -6 11 -11 24 -11 56 0 55 -9 -38 -324 -45 -153 -58
-176 -103 -176 -13 0 -23 -4 -23 -10 0 -13 251 -13 338 0 99 14 162 74 162
154 0 43 -38 90 -85 108 -39 14 -46 28 -13 28 12 0 40 9 62 20 89 43 105 147
30 196 -23 15 -55 19 -191 22 -116 3 -163 1 -163 -7z m156 -46 c-6 -16 -14
-32 -17 -35 -3 -3 -5 -17 -5 -32 1 -14 -2 -24 -6 -22 -7 5 -13 -26 -9 -48 0
-5 -3 -8 -9 -8 -6 0 -6 -9 -1 -23 7 -19 5 -28 -10 -40 -11 -10 -19 -30 -19
-47 0 -16 -4 -30 -9 -30 -5 0 -9 -6 -8 -12 0 -7 -1 -24 -2 -38 -1 -19 -3 -22
-10 -10 -7 9 -9 2 -7 -23 2 -20 0 -37 -5 -37 -4 0 -9 -10 -11 -22 -2 -17 -11
-24 -30 -26 -32 -4 -33 1 -14 56 8 22 12 42 9 45 -2 3 1 16 8 29 7 12 12 27
11 32 -2 5 5 6 14 2 14 -5 15 -4 5 8 -9 10 -8 24 2 57 8 24 20 64 27 89 7 25
15 52 18 60 3 8 4 18 4 23 -1 4 2 7 8 7 5 0 6 7 3 17 -4 9 -2 14 3 10 5 -3 10
3 10 13 0 10 -3 17 -7 14 -4 -2 -9 2 -12 9 -3 8 8 12 37 12 l42 0 -10 -30z
m104 5 c26 -26 26 -70 0 -120 -22 -44 -38 -55 -93 -65 -41 -8 -41 -9 -28 31 6
16 19 62 31 102 19 64 24 72 45 72 14 0 34 -9 45 -20z m34 4 c3 -8 2 -12 -4
-9 -6 3 -10 10 -10 16 0 14 7 11 14 -7z m26 6 c0 -5 3 -9 8 -9 19 3 33 -2 28
-10 -3 -5 0 -11 7 -14 16 -6 15 -53 -1 -50 -5 1 -8 -7 -4 -19 6 -25 -31 -57
-66 -58 -20 0 -21 2 -10 23 7 12 19 26 26 30 6 4 12 13 12 20 0 9 -2 9 -8 0
-4 -6 -8 13 -8 43 -1 30 3 54 7 54 5 0 9 -4 9 -10z m-120 -240 c61 -33 38
-168 -35 -208 -21 -11 -115 -27 -115 -20 0 2 7 24 14 49 8 24 24 77 36 117 20
69 22 72 51 72 17 0 39 -4 49 -10z m82 -30 c-2 -7 3 -10 12 -7 8 3 20 -2 28
-11 11 -13 11 -15 -2 -7 -12 6 -13 5 -2 -6 15 -16 16 -63 1 -91 -9 -17 -13
-18 -21 -7 -7 10 -7 8 -3 -8 5 -20 -4 -30 -19 -20 -2 1 -12 -5 -22 -14 -11 -9
-26 -16 -36 -16 -15 0 -15 2 -1 24 8 12 20 20 26 16 6 -3 7 -1 3 6 -4 6 -3 18
4 26 6 7 12 31 13 53 1 25 5 38 12 34 5 -3 4 1 -3 10 -10 13 -10 17 0 21 9 4
7 6 -4 6 -9 1 -20 5 -23 11 -4 6 2 7 17 1 13 -5 22 -15 20 -21z"/>
<path d="M3055 4410 c-3 -6 4 -10 18 -10 53 0 53 -18 3 -193 -49 -173 -55
-221 -31 -266 30 -58 160 -88 248 -57 84 30 113 80 178 298 51 174 74 218 115
218 8 0 14 5 14 10 0 6 -37 10 -90 10 -53 0 -90 -4 -90 -10 0 -5 8 -10 18 -10
29 0 45 -17 44 -47 -1 -47 -92 -336 -117 -374 -50 -77 -174 -88 -210 -19 -18
34 -15 52 42 250 49 173 59 190 114 190 10 0 19 5 19 10 0 6 -51 10 -134 10
-79 0 -137 -4 -141 -10z m168 -37 c-9 -14 -18 -32 -19 -38 -4 -30 -48 -161
-58 -174 -8 -11 -8 -13 1 -7 9 5 11 2 7 -8 -3 -9 -9 -16 -13 -16 -3 0 -7 -15
-9 -32 -1 -18 -5 -55 -8 -81 -5 -38 -2 -53 12 -70 13 -15 14 -19 4 -12 -10 6
-9 4 2 -6 23 -22 13 -30 -21 -18 -30 11 -57 50 -47 68 4 6 2 9 -6 6 -17 -7
-12 72 6 94 8 12 8 13 -1 7 -18 -10 -16 -2 7 24 11 13 20 28 20 34 0 6 -5 4
-10 -4 -5 -8 -10 -10 -10 -4 0 5 4 14 10 20 5 5 12 23 14 39 2 17 11 53 20 80
9 28 16 64 16 82 0 31 2 32 48 36 26 2 48 4 50 5 1 1 -5 -10 -15 -25z"/>
<path d="M3579 4333 c-13 -16 -12 -17 4 -4 16 13 21 21 13 21 -2 0 -10 -8 -17
-17z"/>
<path d="M1408 3753 c7 -3 16 -2 19 1 4 3 -2 6 -13 5 -11 0 -14 -3 -6 -6z"/>
<path d="M1390 2895 l0 -805 1689 0 1688 0 0 805 0 805 -1689 0 -1688 0 0
-805z m3348 2 l-3 -777 -1658 -3 -1657 -2 0 780 0 780 1660 0 1660 0 -2 -778z"/>
<path d="M1790 3533 c-100 -52 -105 -188 -9 -243 51 -28 118 -24 155 11 14 13
28 19 33 13 4 -5 27 -30 50 -56 l43 -47 -92 -121 c-51 -66 -96 -120 -99 -120
-3 0 -78 83 -166 184 -142 164 -184 207 -173 177 2 -5 76 -93 166 -195 l162
-185 0 -309 0 -308 -86 -87 c-48 -48 -84 -91 -80 -94 4 -4 45 31 92 78 l85 84
78 -85 c44 -47 83 -81 87 -77 4 4 -29 45 -74 90 l-82 82 0 312 0 312 96 125
96 124 66 -76 c36 -43 85 -99 109 -126 l43 -48 0 -272 0 -271 -55 -80 -55 -80
55 -3 c54 -3 55 -4 55 -32 0 -17 4 -30 10 -30 5 0 7 13 4 30 l-6 30 61 0 61 0
-60 84 -60 83 0 266 0 266 88 116 87 116 30 -33 c43 -48 131 -151 155 -181 19
-24 20 -39 20 -315 l0 -290 -87 -86 c-48 -47 -84 -89 -80 -93 4 -4 46 31 93
78 l85 84 81 -83 c44 -46 83 -81 86 -77 3 3 -17 29 -44 58 -28 28 -67 70 -87
92 l-37 40 0 283 0 284 87 116 c47 64 90 121 94 125 3 5 49 -41 100 -101 84
-99 117 -131 107 -103 -1 6 -45 57 -96 116 l-94 106 34 49 c22 34 38 48 48 44
44 -18 100 -16 134 4 l35 21 60 -68 c53 -60 59 -70 46 -81 -9 -7 -49 -57 -90
-111 l-75 -98 0 -263 0 -263 -55 -78 c-30 -42 -55 -79 -55 -81 0 -2 25 -2 55
1 l55 5 0 -46 c0 -31 4 -45 11 -41 6 4 9 23 7 44 l-3 36 53 0 c28 -1 52 2 52
6 0 4 -22 40 -50 80 l-50 73 0 263 0 263 82 110 83 110 25 -27 c14 -16 62 -69
107 -118 l82 -91 1 -289 0 -289 -87 -88 c-48 -48 -84 -91 -80 -95 4 -4 46 31
93 78 l85 84 79 -85 c44 -46 83 -81 87 -77 4 4 -22 37 -58 74 -35 36 -74 77
-86 90 -23 24 -23 27 -23 312 l0 288 51 64 c29 35 69 85 91 111 l40 48 26 -33
c14 -17 55 -64 89 -103 l63 -71 0 -274 0 -274 -56 -83 -55 -84 53 3 53 3 3
-37 c4 -47 22 -49 22 -2 l0 35 55 0 55 0 -55 82 -55 83 0 274 0 273 82 105
c45 57 85 106 88 108 4 3 53 -47 109 -109 l101 -115 0 -308 0 -308 -71 -78
c-39 -43 -68 -81 -64 -85 4 -4 18 7 32 23 14 17 45 51 68 77 l43 48 35 -43
c72 -87 96 -111 104 -104 4 5 3 11 -3 15 -5 4 -38 39 -71 79 l-62 72 -1 301 0
302 107 141 c58 78 124 164 146 190 22 26 36 51 32 55 -4 4 -13 -2 -21 -13 -7
-11 -48 -65 -91 -120 -43 -55 -98 -128 -123 -162 -25 -34 -48 -63 -51 -63 -4
0 -79 83 -168 185 l-162 186 11 35 c42 128 -109 236 -214 153 -73 -58 -73
-160 -1 -217 l26 -20 -29 -34 c-16 -18 -77 -92 -135 -165 l-105 -132 -26 32
c-14 18 -59 68 -100 112 -68 72 -89 105 -68 105 4 0 20 19 36 43 29 43 30 43
68 33 43 -12 118 8 126 33 4 11 0 12 -14 6 -11 -4 -27 -7 -36 -7 -10 0 -18 -3
-18 -8 0 -12 -47 -6 -82 10 -28 13 -35 24 -20 33 4 2 1 2 -5 1 -21 -5 -36 35
-27 75 5 20 8 41 7 48 0 6 9 10 20 7 15 -3 18 -1 9 8 -17 17 34 44 79 42 41
-1 102 -41 94 -62 -2 -7 -1 -11 4 -8 5 3 11 -8 13 -24 5 -31 -15 -90 -30 -90
-5 0 9 -19 32 -42 23 -24 56 -60 74 -82 18 -21 36 -36 39 -32 3 3 -22 36 -56
74 l-61 70 16 37 c39 93 -46 197 -149 181 -22 -4 -49 -13 -60 -21 -61 -43 -76
-133 -32 -197 l25 -37 -36 -48 c-20 -26 -38 -47 -41 -46 -2 1 -28 29 -58 61
l-55 59 16 41 c32 80 -17 172 -99 187 -51 10 -82 0 -125 -40 -35 -31 -37 -37
-37 -93 0 -49 4 -65 22 -84 l23 -24 -131 -175 c-72 -96 -132 -174 -133 -174
-1 0 -44 50 -96 110 -52 61 -98 111 -102 113 -6 3 53 83 91 124 4 5 25 -1 46
-12 44 -23 78 -25 124 -9 30 11 33 9 73 -35 54 -62 62 -51 8 13 l-42 50 21 27
c28 35 28 105 1 149 -22 36 -73 65 -115 65 -94 0 -165 -102 -130 -186 l15 -36
-47 -61 c-26 -34 -49 -64 -51 -67 -1 -2 -27 23 -56 55 -50 55 -53 61 -39 77 9
10 18 39 20 65 13 141 -175 207 -253 88 -22 -33 -28 -95 -11 -125 12 -23 10
-29 -31 -83 l-43 -57 -49 58 c-47 57 -48 59 -38 98 14 53 5 88 -36 130 -42 43
-104 54 -156 27z m113 -17 c9 -5 17 -15 17 -23 0 -8 4 -12 9 -9 13 8 34 -21
25 -35 -5 -8 -3 -9 6 -4 9 5 10 2 6 -11 -3 -11 -6 -35 -8 -54 -2 -38 -15 -63
-29 -54 -5 3 -9 1 -9 -4 0 -13 -42 -28 -68 -24 -12 2 -20 8 -17 13 3 5 -1 6
-9 3 -9 -3 -13 -10 -10 -15 8 -14 -12 -10 -25 4 -6 8 -8 17 -4 21 4 4 1 4 -8
1 -22 -8 -51 62 -43 106 14 74 96 116 167 85z m425 -12 c13 -9 19 -20 15 -27
-4 -7 2 -5 12 3 10 8 16 10 12 3 -4 -6 -3 -14 3 -18 12 -8 13 -95 1 -114 -5
-8 -14 -10 -22 -5 -12 6 -12 5 0 -9 16 -20 2 -23 -18 -4 -11 10 -12 9 -6 -2
11 -18 -12 -31 -58 -31 -49 0 -73 13 -92 51 -18 34 -17 105 2 121 7 5 10 15 6
22 -3 6 -3 8 2 4 4 -4 17 -1 29 7 27 20 86 19 114 -1z m447 -12 c15 -12 23
-22 17 -22 -6 0 -4 -13 5 -32 14 -28 15 -36 2 -72 -10 -30 -20 -42 -37 -44
-12 -2 -20 -8 -17 -13 6 -9 -11 -13 -55 -11 -61 3 -77 16 -58 48 4 6 1 11 -7
11 -8 0 -12 -4 -9 -9 3 -4 0 -8 -6 -8 -6 0 -8 -5 -4 -12 4 -7 3 -8 -5 -4 -6 4
-9 11 -6 16 3 5 1 11 -5 15 -5 3 -10 26 -10 51 0 32 3 43 12 38 6 -4 8 -3 5 4
-11 16 3 41 32 57 36 21 112 14 146 -13z m347 -9 c18 -18 26 -34 23 -52 -1
-14 -3 -38 -4 -53 -1 -36 -44 -78 -79 -78 -47 0 -102 12 -96 21 3 5 0 9 -6 9
-7 0 -10 7 -6 15 3 8 1 14 -3 12 -5 -1 -10 1 -11 5 -1 4 -5 22 -10 39 -9 31
-1 56 27 86 36 40 121 38 165 -4z m737 28 c7 -5 10 -14 6 -21 -6 -9 -3 -9 14
-1 21 12 31 -2 11 -14 -13 -8 -3 -25 13 -25 7 0 6 4 -3 11 -13 9 -13 10 0 6
11 -3 15 -19 16 -60 1 -32 -3 -57 -8 -57 -5 0 -19 -9 -31 -20 -42 -40 -119
-38 -153 3 -19 22 -19 22 2 4 17 -14 21 -14 21 -3 0 8 -3 14 -6 14 -3 -1 -14
2 -23 6 -25 11 -26 104 -2 102 9 0 19 6 21 14 4 12 3 12 -5 1 -6 -8 -12 -9
-16 -3 -17 28 107 66 143 43z m-1592 -241 c19 0 48 7 65 16 l32 16 52 -58 52
-59 -82 -106 c-44 -58 -85 -105 -91 -105 -5 1 -56 54 -112 118 l-103 117 41
55 41 54 35 -24 c21 -14 50 -24 70 -24z m1763 -84 c0 -6 -8 -19 -19 -30 -10
-12 -48 -60 -84 -108 l-65 -88 -92 105 -92 105 42 52 c39 49 43 52 83 49 32
-2 51 4 77 22 l35 25 57 -62 c32 -33 58 -65 58 -70z m-921 -815 c11 -11 16
-22 13 -26 -4 -4 0 -12 8 -18 8 -7 21 -20 28 -29 11 -14 10 -16 -10 -13 -13 1
-31 6 -40 10 -10 4 -18 3 -18 -3 0 -6 -13 -7 -35 -2 -20 4 -35 4 -35 -1 0 -5
-6 -9 -12 -9 -8 1 -5 8 7 18 11 9 26 30 33 45 8 19 18 27 27 23 9 -3 12 0 8
10 -7 20 3 18 26 -5z m785 -32 c1 -8 8 -25 15 -37 15 -28 15 -27 -26 -35 -21
-4 -33 -3 -33 4 0 8 -4 8 -14 0 -11 -9 -15 -9 -19 1 -4 10 -8 10 -16 -2 -14
-20 -14 -7 0 24 7 14 17 23 22 19 6 -4 8 0 4 9 -9 25 4 30 27 11 16 -14 18
-15 8 -2 -7 9 -9 24 -6 34 6 14 9 15 21 2 8 -8 15 -20 17 -28z m-1581 13 c10
-10 14 -22 10 -26 -5 -4 -1 -6 7 -4 10 2 14 -3 12 -16 -2 -10 1 -15 7 -11 7 4
8 0 4 -11 -4 -11 -3 -15 5 -10 6 3 13 3 16 -2 7 -11 -140 -9 -151 2 -5 6 -2 6
6 1 11 -6 13 -4 8 8 -3 10 -2 17 3 17 5 0 12 9 15 21 5 15 10 17 19 9 10 -8
13 -4 11 15 -4 30 6 32 28 7z"/>
<path d="M1910 3357 c0 -2 6 -10 14 -16 11 -9 16 -9 22 1 4 7 4 10 -1 6 -4 -4
-14 -3 -22 3 -7 6 -13 9 -13 6z"/>
<path d="M2199 3473 l-24 -28 28 24 c25 23 32 31 24 31 -2 0 -14 -12 -28 -27z"/>
<path d="M2209 3333 c-12 -16 -12 -17 2 -6 9 7 20 9 24 5 5 -4 5 -1 1 6 -9 16
-11 15 -27 -5z"/>
<path d="M2630 3491 c0 -7 -5 -9 -12 -5 -7 5 -8 3 -3 -5 5 -9 10 -10 18 -2 6
6 8 14 4 18 -4 3 -7 1 -7 -6z"/>
<path d="M2616 3448 c3 -5 10 -6 15 -3 13 9 11 12 -6 12 -8 0 -12 -4 -9 -9z"/>
<path d="M3745 3211 c-3 -5 -2 -12 3 -15 5 -3 9 1 9 9 0 17 -3 19 -12 6z"/>
<path d="M3056 2333 c-6 -14 -5 -15 5 -6 7 7 10 15 7 18 -3 3 -9 -2 -12 -12z"/>
<path d="M3860 2356 c0 -2 7 -9 15 -16 13 -11 14 -10 9 4 -5 14 -24 23 -24 12z"/>
<path d="M4170 3532 c-72 -40 -98 -116 -61 -186 l20 -38 -41 -49 c-23 -27 -38
-52 -35 -55 7 -7 37 25 64 69 18 28 28 33 38 18 3 -6 26 -13 50 -17 56 -8 95
7 135 53 93 106 -45 274 -170 205z m122 -26 c38 -18 53 -40 41 -58 -3 -6 -1
-8 5 -4 7 4 9 -5 8 -26 -4 -45 -15 -78 -27 -78 -6 0 -8 -4 -5 -9 3 -5 -5 -16
-19 -25 -28 -18 -39 -21 -30 -6 7 11 -8 14 -19 3 -22 -22 -102 6 -92 33 3 8 2
13 -3 10 -27 -17 -43 102 -18 136 6 9 7 7 2 -7 -3 -12 6 -6 25 17 34 41 67 45
132 14z"/>
<path d="M3986 3337 c3 -10 9 -15 12 -12 3 3 0 11 -7 18 -10 9 -11 8 -5 -6z"/>
<path d="M4183 3105 c0 -8 4 -12 9 -9 5 3 6 10 3 15 -9 13 -12 11 -12 -6z"/>
<path d="M3425 3090 c-4 -6 -11 -7 -17 -4 -7 4 -8 2 -4 -5 6 -9 11 -9 22 0 14
11 18 19 10 19 -3 0 -8 -5 -11 -10z"/>
<path d="M4210 3066 c0 -2 8 -10 18 -17 15 -13 16 -12 3 4 -13 16 -21 21 -21
13z"/>
<path d="M5056 2228 c3 -5 10 -6 15 -3 13 9 11 12 -6 12 -8 0 -12 -4 -9 -9z"/>
<path d="M2466 1762 c-69 -154 -75 -158 -129 -84 -34 47 -34 49 -13 58 27 12
33 59 10 85 -14 16 -30 19 -103 18 -47 -1 -78 -3 -68 -6 15 -4 17 -18 17 -103
0 -94 -1 -99 -22 -103 -13 -2 9 -4 47 -4 39 0 60 2 48 4 -20 4 -23 11 -23 49
0 24 4 44 10 44 5 0 25 -22 42 -50 l33 -50 75 0 c55 1 70 3 58 11 -12 7 -15
15 -9 31 6 17 16 21 45 21 36 0 56 -14 56 -40 0 -6 -8 -14 -17 -16 -10 -3 9
-5 42 -6 33 0 54 3 48 7 -7 5 -34 55 -59 113 -26 57 -47 105 -48 106 -1 1 -19
-38 -40 -85z m-178 56 c19 -19 15 -66 -7 -78 -41 -21 -51 -13 -51 40 0 46 2
50 23 50 13 0 28 -5 35 -12z m205 -116 c-33 -5 -35 -1 -22 38 l12 33 18 -34
17 -34 -25 -3z"/>
<path d="M3230 1839 c-30 -3 -47 -6 -37 -7 15 -2 17 -13 17 -90 0 -104 13
-124 80 -126 65 -1 84 26 89 129 2 68 6 85 20 88 9 3 -4 5 -29 5 -25 0 -37 -2
-27 -5 14 -4 17 -17 17 -84 0 -66 -3 -82 -20 -99 -24 -24 -43 -25 -64 -4 -12
11 -16 36 -16 99 0 79 1 84 23 87 46 6 0 13 -53 7z"/>
<path d="M3871 1837 c-68 -24 -97 -111 -58 -171 59 -89 200 -55 214 52 11 85
-71 148 -156 119z m83 -29 c10 -14 16 -44 16 -78 0 -68 -19 -100 -60 -100 -39
0 -54 29 -54 102 -1 41 4 62 18 77 25 27 61 27 80 -1z"/>
<path d="M1930 1808 c1 -30 2 -31 12 -13 14 25 28 35 51 35 15 0 17 -11 17
-95 0 -90 -1 -96 -22 -105 -17 -6 -4 -9 47 -8 39 0 60 3 48 5 -22 4 -23 9 -23
104 0 98 0 100 23 97 12 -2 26 -13 32 -25 11 -26 31 -32 21 -7 -3 9 -6 22 -6
30 0 11 -20 14 -100 14 l-100 0 0 -32z"/>
<path d="M2643 1833 c15 -4 17 -18 17 -103 0 -85 -2 -99 -17 -103 -10 -3 14
-5 54 -6 83 -1 113 10 136 49 33 55 12 135 -40 159 -13 6 -56 10 -96 10 -40
-1 -64 -3 -54 -6z m127 -23 c29 -29 29 -131 -1 -161 -11 -11 -28 -19 -37 -17
-14 3 -17 19 -20 101 -3 92 -2 97 18 97 11 0 29 -9 40 -20z"/>
<path d="M2883 1833 c15 -4 17 -18 17 -103 0 -85 -2 -99 -17 -103 -10 -3 26
-5 79 -6 l97 -1 9 33 c12 43 2 57 -13 20 -14 -32 -32 -43 -71 -43 -21 0 -24 4
-24 40 0 22 0 43 -1 47 0 4 4 9 10 11 6 2 18 -11 26 -30 l14 -33 0 65 c1 59
-1 63 -12 40 -7 -14 -19 -26 -27 -28 -12 -2 -14 7 -12 43 3 29 9 45 17 45 27
0 65 -20 65 -34 0 -8 5 -18 10 -21 6 -4 10 8 10 29 l0 36 -97 -1 c-54 -1 -90
-3 -80 -6z"/>
<path d="M3433 1829 c14 -8 17 -25 17 -100 0 -84 -2 -90 -22 -99 -18 -7 -13
-9 27 -9 40 0 45 2 28 9 -21 9 -23 16 -23 91 l0 81 76 -96 c42 -53 78 -96 80
-96 3 0 4 17 3 38 -1 20 -2 69 -1 109 2 59 5 72 20 76 9 3 -3 5 -28 5 -25 0
-37 -2 -27 -5 14 -4 17 -16 17 -65 l0 -61 -51 67 c-49 63 -53 66 -93 66 -33
-1 -37 -3 -23 -11z"/>
<path d="M3673 1833 c15 -4 17 -18 17 -103 0 -85 -2 -99 -17 -103 -10 -3 11
-5 47 -5 48 -1 59 2 43 8 -22 9 -23 15 -23 100 0 85 1 91 23 100 16 6 5 9 -43
8 -36 0 -57 -2 -47 -5z"/>
<path d="M4058 1830 c21 -9 22 -15 22 -100 0 -85 -1 -91 -22 -100 -18 -7 -13
-9 27 -9 40 0 45 2 28 9 -21 9 -23 16 -23 90 l0 81 66 -83 c100 -124 95 -120
92 -68 -1 25 -1 75 0 112 2 54 5 67 20 71 9 3 -3 5 -28 5 -25 0 -37 -2 -27 -5
14 -4 17 -16 17 -66 l0 -61 -51 67 c-51 66 -53 67 -98 66 -38 0 -42 -2 -23 -9z"/>
<path d="M1540 1596 c0 -2 8 -10 18 -17 15 -13 16 -12 3 4 -13 16 -21 21 -21
13z"/>
<path d="M4586 1558 c3 -5 10 -6 15 -3 13 9 11 12 -6 12 -8 0 -12 -4 -9 -9z"/>
<path d="M1578 4948 c-32 -22 -58 -43 -58 -47 0 -4 7 -16 15 -27 15 -18 15
-18 10 7 -4 16 -1 30 8 37 20 17 114 -113 96 -134 -20 -24 5 -15 41 16 19 17
28 28 20 25 -19 -7 -104 110 -96 131 7 17 28 18 44 2 7 -7 12 -8 12 -2 0 11
-21 34 -29 33 -4 0 -32 -18 -63 -41z"/>
<path d="M4543 4967 c5 -13 -7 -38 -39 -83 -37 -52 -49 -62 -60 -53 -8 6 -14
8 -14 3 1 -16 82 -66 115 -71 40 -6 78 17 95 57 18 44 6 73 -52 122 -32 26
-49 36 -45 25z m67 -106 c-25 -62 -92 -104 -106 -67 -3 8 14 41 38 74 42 58
43 59 62 42 17 -16 17 -22 6 -49z"/>
<path d="M1455 4859 c-23 -18 -32 -29 -20 -26 15 4 30 -7 64 -51 25 -30 44
-64 44 -75 -2 -18 0 -18 25 4 15 13 32 27 37 32 6 5 3 6 -6 2 -20 -7 -114 109
-105 130 7 19 8 20 -39 -16z"/>
<path d="M1319 4744 c-18 -19 -27 -33 -18 -29 10 4 32 -13 69 -55 l53 -62 -21
-20 -20 -21 -54 58 c-29 32 -52 64 -51 72 0 9 -13 1 -33 -18 -40 -38 -40 -39
-16 -32 12 3 35 -13 71 -52 43 -46 51 -58 41 -70 -27 -33 0 -10 88 73 50 49
92 93 92 98 0 11 -39 62 -40 52 0 -4 5 -19 12 -33 10 -22 8 -29 -13 -51 l-24
-26 -52 58 c-36 40 -51 64 -47 76 8 25 3 23 -37 -18z"/>
<path d="M4730 4729 c-46 -22 -90 -37 -97 -35 -21 9 -14 -8 12 -27 20 -14 23
-15 19 -2 -9 22 21 29 49 10 26 -17 27 -51 2 -57 -8 -2 -2 -13 16 -29 24 -22
29 -24 29 -10 0 10 13 56 29 104 17 48 29 87 28 86 -1 0 -40 -18 -87 -40z m24
-26 c-4 -16 -8 -30 -10 -32 -5 -5 -34 20 -34 29 0 5 32 25 48 29 1 1 -1 -11
-4 -26z"/>
<path d="M4834 4616 c-50 -50 -43 -103 21 -151 l35 -28 19 22 c12 14 25 19 37
15 13 -5 7 5 -15 29 -39 41 -46 45 -37 21 4 -10 -1 -25 -10 -36 -16 -17 -18
-17 -36 -2 -28 26 -22 62 16 100 60 60 127 37 112 -39 l-6 -31 24 23 c24 22
24 23 5 42 -10 10 -19 23 -19 29 0 14 -55 40 -86 40 -16 0 -38 -12 -60 -34z"/>
<path d="M1142 4561 l-51 -59 21 -18 c12 -11 18 -13 14 -6 -4 7 -5 24 -2 38 7
25 7 24 67 -28 45 -39 59 -57 55 -72 -4 -14 4 -10 29 15 33 33 49 63 22 40
-11 -8 -27 1 -72 42 -62 56 -68 85 -17 72 26 -6 26 -6 8 14 -11 12 -20 21 -21
21 -1 0 -25 -26 -53 -59z"/>
<path d="M4686 4568 c3 -5 10 -6 15 -3 13 9 11 12 -6 12 -8 0 -12 -4 -9 -9z"/>
<path d="M5043 4524 c3 -25 -107 -119 -129 -110 -8 3 -3 -9 12 -29 28 -37 37
-44 28 -22 -3 8 21 33 57 62 58 46 62 47 75 30 12 -16 11 -21 -3 -37 -18 -20
-48 -24 -59 -6 -4 6 -14 -12 -24 -43 -15 -48 -15 -57 -1 -77 14 -24 15 -23 27
25 7 26 13 52 14 56 0 4 8 3 18 -2 26 -14 62 13 62 44 0 13 -13 39 -28 57 -16
18 -34 42 -40 53 -12 20 -12 20 -9 -1z"/>
<path d="M1052 4460 c-16 -26 -15 -31 3 -24 9 4 35 -11 65 -36 53 -44 62 -73
29 -93 -25 -16 -129 59 -129 93 -1 24 -1 24 -12 5 -6 -11 -20 -31 -32 -44 -18
-21 -19 -23 -3 -18 12 5 35 -6 71 -33 29 -22 61 -40 70 -40 28 0 56 20 67 47
12 33 -5 60 -66 104 -26 19 -44 38 -41 46 8 20 -8 15 -22 -7z"/>
<path d="M1325 4410 c3 -5 8 -10 11 -10 2 0 4 5 4 10 0 6 -5 10 -11 10 -5 0
-7 -4 -4 -10z"/>
<path d="M5114 4331 c-32 -14 -64 -60 -64 -93 0 -44 48 -88 95 -88 50 0 95 44
95 94 0 64 -69 111 -126 87z m103 -48 c14 -21 13 -25 -19 -57 -38 -38 -82 -54
-107 -39 -39 24 -15 71 54 107 37 20 53 17 72 -11z"/>
<path d="M5523 4195 c0 -8 4 -12 9 -9 5 3 6 10 3 15 -9 13 -12 11 -12 -6z"/>
<path d="M863 4184 c4 -4 -5 -20 -18 -36 -49 -58 -23 -146 49 -164 33 -8 80
11 99 40 20 30 31 86 18 86 -6 0 -19 8 -30 19 -18 18 -19 18 -34 -15 -13 -26
-13 -32 -2 -28 7 3 23 1 34 -5 18 -10 19 -15 9 -36 -14 -31 -59 -34 -105 -5
-42 25 -57 54 -43 80 14 25 44 42 64 34 27 -10 18 12 -9 24 -29 13 -42 15 -32
6z"/>
<path d="M1023 4164 c-8 -22 12 -40 30 -26 16 14 27 6 27 -20 0 -11 4 -17 10
-13 19 12 -20 75 -47 75 -7 0 -16 -7 -20 -16z"/>
<path d="M5176 4132 c-3 -5 4 -23 15 -42 14 -23 24 -29 31 -22 7 7 5 20 -8 41
-19 31 -29 38 -38 23z"/>
<path d="M5330 4095 c0 -22 -134 -87 -149 -72 -6 6 -3 -8 6 -31 10 -23 21 -42
25 -42 4 0 5 6 3 13 -3 6 9 20 26 30 30 17 32 17 45 0 7 -10 14 -21 14 -24 0
-13 31 -18 55 -9 32 12 33 47 4 107 -22 46 -29 52 -29 28z m30 -64 c0 -23 -24
-44 -46 -39 -29 5 -27 26 3 42 37 20 43 20 43 -3z"/>
<path d="M1129 4063 c-13 -16 -12 -17 4 -4 9 7 17 15 17 17 0 8 -8 3 -21 -13z"/>
<path d="M763 3997 c-16 -36 -16 -36 5 -31 9 3 35 -3 57 -12 l40 -17 -68 -16
c-56 -13 -72 -21 -83 -43 -12 -24 -12 -26 4 -21 10 2 47 -9 84 -26 57 -25 66
-33 61 -50 -3 -12 -9 -23 -13 -26 -15 -10 -150 48 -151 64 0 9 -9 -2 -19 -24
-23 -49 -24 -61 -5 -45 11 9 28 7 80 -10 99 -33 98 -60 -2 -98 l-51 -19 -26
56 c-14 31 -26 49 -26 41 0 -8 -3 -26 -6 -40 -4 -18 -3 -21 4 -11 8 11 16 2
36 -37 15 -29 25 -52 23 -52 -16 0 -67 24 -67 31 0 23 -16 5 -27 -28 -12 -39
-8 -58 6 -34 7 10 16 11 42 3 19 -6 53 -16 77 -22 28 -7 42 -16 43 -28 1 -9 5
-3 9 13 4 17 11 39 16 50 6 16 5 18 -7 9 -15 -12 -79 -7 -79 6 0 4 18 14 40
23 22 8 40 11 40 6 0 -5 5 -9 10 -9 6 0 10 8 10 18 0 19 53 164 71 196 9 16 8
18 -7 12 -17 -7 -130 32 -120 41 2 3 44 15 92 27 l87 22 -81 34 c-58 25 -82
41 -84 55 -3 17 -5 15 -15 -8z"/>
<path d="M5403 3948 c2 -13 -43 -38 -106 -59 -32 -11 -40 -10 -49 2 -7 11 -8
9 -3 -6 4 -11 12 -36 18 -55 9 -29 12 -31 15 -13 2 14 16 27 40 36 20 9 54 23
75 31 l37 16 0 -30 c0 -24 -5 -31 -27 -36 -19 -5 -30 -2 -39 10 -11 16 -15 13
-42 -26 -22 -32 -29 -51 -25 -71 5 -25 23 -39 23 -18 0 6 9 25 20 44 19 33 23
34 50 24 35 -13 60 3 60 40 0 31 -32 123 -42 123 -5 0 -7 -5 -5 -12z"/>
<path d="M5103 3905 c0 -8 4 -12 9 -9 5 3 6 10 3 15 -9 13 -12 11 -12 -6z"/>
<path d="M5384 3735 c-60 -31 -71 -99 -24 -147 28 -27 36 -30 73 -25 52 7 87
44 87 92 0 69 -73 112 -136 80z m111 -41 c9 -9 15 -23 13 -32 -9 -43 -120 -78
-151 -47 -9 9 -17 20 -17 24 0 18 29 43 65 56 53 19 70 18 90 -1z"/>
<path d="M5424 3528 c-51 -24 -57 -119 -10 -150 24 -16 28 -7 8 15 -43 46 -17
94 57 104 31 4 46 1 61 -12 26 -24 25 -60 -2 -79 -31 -22 -17 -29 23 -12 19 9
28 15 20 16 -9 0 -11 8 -7 26 7 27 -12 67 -43 91 -19 15 -78 16 -107 1z"/>
<path d="M597 3508 c-15 -38 -16 -48 -8 -48 5 0 11 5 13 11 2 7 20 7 53 2 l50
-9 -63 -28 c-51 -24 -64 -34 -71 -60 -9 -33 -5 -48 8 -28 6 10 22 10 80 0 117
-20 108 -53 -24 -89 -47 -13 -85 -26 -85 -29 1 -3 32 -21 71 -40 39 -19 79
-43 89 -52 17 -16 18 -15 23 10 6 30 0 43 -12 24 -10 -17 -44 -3 -37 15 3 8 6
23 6 34 0 21 39 28 41 7 0 -7 7 21 14 62 8 41 12 76 9 79 -2 2 -4 -1 -4 -8 0
-10 -13 -11 -52 -5 -29 4 -59 7 -65 7 -28 1 -9 15 67 52 48 24 75 42 68 46 -7
4 -45 12 -85 19 -51 9 -73 18 -76 29 -3 14 -5 14 -10 -1z m76 -302 c-5 -22 -8
-23 -29 -14 -30 14 -31 25 -1 31 12 2 25 5 28 6 3 0 4 -10 2 -23z"/>
<path d="M5581 3358 c-1 -25 -138 -40 -165 -19 -17 15 -18 15 -13 -4 3 -11 8
-46 12 -77 4 -39 11 -58 20 -58 7 0 20 -3 29 -6 25 -10 19 10 -6 21 -17 7 -23
18 -23 40 0 27 4 30 33 33 38 4 46 -22 10 -31 -35 -10 -17 -14 35 -9 44 4 47
5 27 16 -34 17 -29 31 13 34 33 3 37 1 37 -20 0 -27 -9 -43 -30 -51 -8 -3 -1
-6 16 -6 l31 -1 -9 68 c-9 71 -16 98 -17 70z"/>
<path d="M777 3239 c7 -7 15 -10 18 -7 3 3 -2 9 -12 12 -14 6 -15 5 -6 -5z"/>
<path d="M5425 3127 c0 -53 18 -77 56 -77 24 0 35 9 60 50 34 55 43 60 59 30
9 -17 6 -25 -14 -45 l-25 -25 27 0 c24 0 27 4 29 37 2 43 -19 73 -51 73 -29 0
-40 -10 -59 -46 -24 -46 -42 -58 -60 -40 -20 21 -10 53 22 71 l26 14 -35 1
c-35 0 -35 0 -35 -43z"/>
<path d="M565 3096 c-15 -11 -19 -28 -21 -82 -2 -38 -1 -61 2 -51 5 14 18 17
84 17 65 0 81 -3 89 -17 8 -14 10 -4 11 42 0 39 -6 68 -16 83 -20 29 -64 30
-71 2 l-6 -21 -19 21 c-22 24 -28 24 -53 6z m145 -45 c15 -29 13 -31 -30 -31
-41 0 -52 14 -28 38 18 18 46 14 58 -7z m-90 5 c0 -2 3 -11 6 -20 5 -13 -2
-16 -34 -16 -35 0 -39 2 -35 20 4 14 14 20 34 20 16 0 29 -2 29 -4z"/>
<path d="M5432 3012 c0 -10 -3 -26 -7 -38 -5 -15 1 -30 18 -49 31 -37 65 -29
101 25 28 42 52 51 63 23 4 -10 -3 -24 -21 -40 l-27 -23 28 0 c25 0 28 4 31
37 3 43 -20 73 -55 73 -16 0 -33 -13 -55 -45 -37 -52 -63 -56 -63 -10 0 21 7
33 23 41 36 18 36 22 -2 22 -26 0 -35 -4 -34 -16z"/>
<path d="M5420 2844 c0 -32 3 -44 9 -35 7 11 25 12 82 7 41 -3 76 -11 77 -16
9 -27 22 -4 21 38 -1 26 -3 39 -6 30 -4 -16 -14 -17 -81 -12 -52 4 -81 11 -89
22 -11 13 -13 8 -13 -34z"/>
<path d="M704 2866 c-15 -11 -16 -17 -7 -27 13 -14 47 -4 38 11 -10 17 17 11
38 -7 19 -17 20 -17 9 3 -18 35 -47 42 -78 20z"/>
<path d="M676 2801 c5 -5 18 -11 28 -13 23 -4 42 -58 25 -69 -6 -4 -43 -10
-82 -14 -53 -5 -72 -3 -79 7 -7 9 -8 8 -4 -5 3 -10 6 -35 7 -55 0 -29 2 -32 8
-17 6 16 23 22 85 31 63 8 79 8 83 -3 9 -24 -6 -42 -77 -89 -38 -26 -70 -50
-70 -54 0 -4 39 -13 86 -20 137 -21 149 -51 34 -86 -69 -21 -75 -22 -88 -6
-12 16 -13 15 -6 -3 4 -11 9 -32 12 -48 5 -32 22 -47 22 -20 0 14 17 23 76 39
90 26 102 17 60 -46 -23 -36 -28 -39 -50 -29 -36 17 -66 -3 -65 -44 0 -32 37
-135 38 -107 1 22 140 73 158 58 17 -14 15 -1 -7 47 -13 28 -19 34 -19 20 -1
-13 -12 -25 -30 -32 -43 -16 -45 -6 -9 39 l31 39 -29 106 c-16 58 -30 98 -32
89 -2 -9 -12 -16 -22 -16 -23 0 -44 52 -27 69 13 13 33 15 40 4 2 -5 2 -1 0 7
-6 20 -33 202 -33 218 0 7 -14 12 -37 12 -22 0 -33 -4 -27 -9z m44 -271 c0
-16 -7 -20 -32 -20 l-33 1 24 19 c30 25 41 25 41 0z m50 -280 c9 -17 6 -21
-26 -35 -46 -19 -44 -20 -44 14 0 42 50 58 70 21z"/>
<path d="M5417 2768 c-9 -32 -8 -45 2 -30 6 11 23 12 77 5 l69 -8 -90 -50 -89
-49 89 -13 c49 -7 92 -18 97 -25 6 -10 8 -9 8 4 0 9 3 25 6 35 6 16 5 17 -7 2
-11 -13 -25 -15 -64 -10 l-50 6 65 35 c55 30 65 40 71 68 6 30 5 32 -10 19
-13 -12 -28 -12 -84 -3 -37 6 -72 17 -76 25 -6 9 -10 6 -14 -11z"/>
<path d="M5389 2551 c-24 -24 -29 -38 -29 -75 0 -33 4 -46 14 -46 8 0 22 -7
31 -16 20 -20 21 -19 29 31 4 24 3 35 -2 27 -11 -16 -62 -6 -62 12 0 6 7 22
16 35 14 20 23 23 60 18 55 -6 94 -31 94 -60 -1 -30 -23 -58 -49 -60 -22 -1
-30 -17 -8 -17 6 0 21 -3 32 -6 15 -4 21 0 23 13 15 121 16 118 -18 146 -44
37 -92 36 -131 -2z"/>
<path d="M5301 2293 c-13 -37 -28 -74 -34 -80 -11 -15 4 -18 19 -4 5 6 25 2
49 -9 22 -10 49 -21 60 -25 15 -6 -2 -13 -67 -29 -48 -12 -89 -24 -92 -27 -3
-2 29 -20 70 -38 41 -18 74 -40 74 -47 0 -24 15 -15 27 15 10 27 9 29 -6 20
-11 -8 -28 -5 -61 9 l-45 19 35 7 c90 19 107 26 118 51 16 34 15 40 -2 26 -10
-8 -29 -4 -80 19 -56 25 -66 34 -66 55 0 30 9 31 89 4 43 -15 65 -28 71 -43 7
-19 8 -18 18 14 5 19 13 44 17 55 7 18 7 19 -6 3 -13 -16 -18 -16 -86 8 -53
19 -73 32 -75 46 -2 12 -13 -8 -27 -49z"/>
<path d="M903 2148 c3 -19 -133 -82 -147 -68 -7 7 -7 16 2 31 17 26 12 31 -12
14 -18 -14 -17 -17 15 -84 34 -69 34 -70 59 -56 l25 14 -26 1 c-15 0 -30 7
-33 15 -4 12 11 23 61 46 36 16 74 27 83 24 16 -5 16 -2 -2 35 -20 40 -30 51
-25 28z"/>
<path d="M5192 2041 c-32 -65 -29 -103 9 -135 33 -28 84 -35 111 -13 15 11 68
91 68 101 0 3 -7 3 -15 0 -17 -7 -142 61 -147 79 -2 8 -13 -7 -26 -32z m84
-57 c35 -20 64 -37 64 -40 0 -2 -11 -11 -25 -20 -23 -15 -27 -15 -70 6 -48 23
-69 49 -59 74 9 23 18 20 90 -20z"/>
<path d="M915 1995 c-19 -18 -25 -35 -25 -70 0 -37 -3 -45 -19 -45 -17 0 -31
18 -31 40 0 5 7 16 16 24 11 12 12 16 2 16 -16 -1 -56 -30 -40 -30 7 0 12 -10
12 -23 0 -31 18 -47 51 -47 37 0 59 33 59 86 0 47 19 63 45 38 19 -19 19 -34
-1 -62 -8 -12 -12 -22 -7 -22 13 1 59 40 47 40 -6 0 -14 13 -17 28 -4 17 -16
33 -32 40 -34 16 -32 16 -60 -13z"/>
<path d="M5089 1861 c-16 -16 -29 -38 -29 -49 0 -24 37 -62 85 -87 21 -12 35
-27 35 -39 0 -16 3 -15 20 7 23 28 27 45 7 29 -10 -8 -27 -2 -70 26 -52 33
-58 40 -55 67 2 19 9 31 21 33 23 5 117 -56 126 -81 7 -18 10 -16 29 17 21 35
32 67 13 37 -7 -10 -22 -4 -72 28 -35 23 -67 41 -72 41 -5 0 -22 -13 -38 -29z"/>
<path d="M963 1841 c-45 -29 -64 -36 -72 -28 -19 19 -11 -7 10 -33 13 -15 19
-18 15 -8 -3 12 10 27 50 53 58 38 90 42 108 12 9 -15 5 -23 -23 -46 -19 -16
-50 -37 -68 -47 -30 -15 -36 -16 -44 -3 -5 7 -9 11 -9 6 0 -7 50 -87 55 -87 2
0 1 8 -1 18 -3 12 9 25 41 46 62 38 75 53 75 82 0 27 -40 74 -63 74 -8 0 -41
-18 -74 -39z"/>
<path d="M700 1835 c0 -5 5 -17 10 -25 5 -8 10 -10 10 -5 0 6 -5 17 -10 25 -5
8 -10 11 -10 5z"/>
<path d="M4998 1731 c-33 -31 -36 -70 -7 -96 18 -17 24 -18 52 -6 18 7 44 16
60 18 22 4 27 2 27 -16 0 -25 -29 -42 -61 -35 -19 5 -21 4 -9 -5 21 -17 56
-35 48 -26 -4 4 4 16 17 27 28 22 32 59 9 82 -19 20 -45 20 -91 1 -33 -14 -38
-14 -52 -1 -13 14 -13 18 4 36 16 17 26 20 55 15 38 -7 38 -7 0 17 -24 14 -27
13 -52 -11z"/>
<path d="M1061 1691 c-48 -45 -43 -81 27 -166 18 -22 23 -25 19 -10 -4 16 7
30 51 64 30 25 64 44 74 44 15 -2 11 7 -17 42 -55 66 -102 74 -154 26z m128
-14 c8 -11 -2 -24 -49 -60 -33 -26 -65 -47 -70 -47 -6 0 -10 13 -10 29 0 56
98 115 129 78z"/>
<path d="M4880 1587 c-19 -23 -27 -36 -18 -29 13 11 25 5 76 -40 48 -41 59
-55 50 -66 -7 -8 -21 -11 -37 -7 l-26 6 24 -19 24 -19 48 54 c53 57 55 63 37
81 -17 17 -33 15 -19 -2 13 -15 5 -46 -13 -46 -22 1 -116 98 -110 114 10 25 2
19 -36 -27z"/>
<path d="M1210 1544 c-35 -35 -61 -53 -72 -50 -23 5 -23 0 4 -32 11 -15 19
-20 15 -11 -6 18 -2 24 40 62 l31 29 -14 -59 c-8 -32 -14 -64 -14 -71 0 -12
115 -132 127 -132 3 0 1 6 -5 13 -17 20 88 133 114 123 10 -4 -8 20 -41 53
-33 34 -60 61 -62 61 -1 0 0 -6 3 -14 4 -10 -85 -111 -92 -103 -3 3 25 147 32
170 9 28 -8 18 -66 -39z m165 -68 c18 -13 17 -15 -12 -52 -49 -61 -78 -85 -96
-78 -36 14 -29 41 25 93 29 28 56 51 59 51 3 0 14 -6 24 -14z"/>
<path d="M4789 1493 c-23 -24 -28 -34 -15 -29 13 4 27 -1 42 -15 33 -31 22
-39 -33 -24 l-48 12 -55 -46 c-30 -25 -57 -48 -60 -51 -3 -4 -31 -25 -62 -49
-62 -44 -67 -56 -42 -87 15 -18 15 -18 9 3 -7 26 8 58 30 67 20 7 69 -45 52
-56 -7 -4 -23 0 -36 9 -21 14 -20 10 9 -31 18 -25 35 -46 36 -46 2 0 1 14 -2
30 -8 37 8 39 31 4 16 -24 16 -28 1 -42 -13 -14 -21 -14 -47 -5 l-31 12 18
-22 c10 -12 20 -24 21 -26 3 -5 112 79 120 93 4 6 0 5 -9 -2 -14 -11 -22 -5
-62 45 -48 60 -53 79 -25 96 19 12 22 9 83 -65 23 -29 35 -52 30 -60 -4 -7 6
-2 22 12 48 41 50 43 33 37 -11 -3 -33 14 -68 54 -44 50 -51 62 -40 75 8 10
22 13 43 9 60 -12 63 -14 59 -39 -4 -18 2 -29 21 -41 30 -20 41 -15 111 50 27
25 33 36 20 31 -28 -8 -129 92 -119 117 9 25 2 21 -37 -20z m85 -112 l28 -29
-22 -12 c-18 -9 -25 -8 -41 6 -22 20 -24 35 -7 52 15 15 9 17 42 -17z"/>
<path d="M1498 1355 c-15 -33 2 -55 27 -35 11 10 13 16 4 26 -8 10 -8 15 2 18
8 2 21 7 29 9 8 3 0 6 -18 6 -25 1 -35 -4 -44 -24z"/>
<path d="M1537 1302 c-19 -21 -23 -42 -5 -24 17 17 42 15 67 -5 l21 -18 -46
-60 c-25 -33 -52 -59 -61 -58 -8 0 0 -12 19 -28 34 -29 59 -39 40 -16 -8 9 0
28 34 72 49 66 52 69 74 55 12 -8 12 -20 -2 -102 -9 -51 -15 -94 -14 -95 1 -2
36 20 77 47 116 78 140 67 81 -37 -29 -52 -43 -67 -58 -65 -10 2 1 -9 25 -23
46 -27 62 -32 44 -14 -18 18 56 151 80 145 29 -7 19 1 -52 42 -52 30 -67 35
-64 22 6 -24 -23 -33 -51 -14 -27 17 -25 54 3 54 9 1 4 7 -14 17 -16 9 -62 40
-101 69 -40 30 -74 54 -76 54 -3 0 -12 -8 -21 -18z m223 -202 c0 -8 -41 -32
-46 -27 -3 3 -2 16 1 30 6 23 9 24 26 14 10 -6 19 -14 19 -17z"/>
<path d="M4460 1223 c0 -6 -9 -15 -20 -18 -30 -9 -50 -34 -50 -60 0 -39 25
-55 86 -55 52 0 55 -2 52 -22 -4 -27 -41 -36 -64 -17 -25 20 -23 6 2 -26 14
-16 24 -24 22 -16 -2 8 6 17 17 19 31 7 45 22 45 52 0 39 -25 55 -84 55 -48 0
-51 2 -51 25 0 20 6 26 28 28 17 2 37 -4 48 -14 10 -9 19 -13 19 -8 -1 14 -50
71 -50 57z"/>
<path d="M1453 1175 c0 -8 4 -12 9 -9 5 3 6 10 3 15 -9 13 -12 11 -12 -6z"/>
<path d="M2007 1139 c7 -7 15 -10 18 -7 3 3 -2 9 -12 12 -14 6 -15 5 -6 -5z"/>
<path d="M4275 1110 c-3 -6 -23 -19 -43 -30 -20 -10 -30 -19 -22 -20 8 0 31
-32 51 -71 31 -58 34 -71 22 -76 -9 -4 -24 -1 -34 5 -28 18 -32 14 -12 -12
l18 -24 67 37 c37 20 68 39 68 42 0 3 -7 14 -16 25 -13 16 -15 16 -10 2 3 -10
-2 -25 -11 -33 -15 -15 -19 -11 -55 54 -36 65 -38 72 -24 87 9 8 16 17 16 20
0 8 -9 4 -15 -6z"/>
<path d="M1934 1045 c-17 -13 -16 -14 18 -8 66 10 86 -31 51 -104 -22 -47 -54
-61 -89 -39 -19 13 -25 24 -21 42 2 13 1 24 -3 24 -9 0 -32 -51 -25 -58 3 -3
5 -2 5 1 0 4 16 -5 36 -18 45 -31 62 -31 105 -2 64 43 63 122 -1 160 -35 21
-51 21 -76 2z"/>
<path d="M4105 1019 c-22 -10 -32 -19 -22 -19 13 0 27 -20 48 -65 16 -35 29
-69 29 -74 0 -15 -32 -22 -46 -10 -19 15 -18 58 1 66 12 4 3 14 -31 37 l-48
32 -55 -20 c-32 -12 -49 -22 -38 -24 26 -5 20 -37 -9 -51 -33 -15 -58 2 -48
33 6 17 4 19 -7 10 -8 -7 -49 -22 -92 -35 -117 -35 -146 -74 -110 -146 24 -50
55 -60 130 -42 32 7 51 15 42 17 -11 2 -22 26 -34 70 -10 37 -20 72 -22 79 -3
6 6 14 18 18 17 6 28 1 49 -23 65 -75 102 -114 105 -110 1 1 5 44 7 95 2 51 7
96 11 100 4 4 28 -4 52 -17 43 -23 57 -40 35 -40 -20 0 -10 -50 13 -65 21 -14
29 -13 85 8 34 12 62 25 62 29 0 4 -6 5 -13 2 -10 -3 -25 20 -47 71 -28 64
-31 78 -19 86 24 15 -4 8 -46 -12z m-145 -165 l0 -37 -20 26 c-24 31 -25 34
-2 40 9 3 18 5 20 6 1 0 2 -15 2 -35z m-189 -54 c10 -36 18 -68 19 -72 0 -13
-47 -9 -58 5 -20 24 -33 96 -22 118 20 36 42 18 61 -51z"/>
<path d="M2095 916 c-20 -52 -36 -80 -49 -84 -17 -5 -16 -6 5 -18 31 -17 44
-17 30 0 -9 10 -7 24 7 57 l19 43 18 -66 c13 -51 23 -68 42 -77 31 -14 34 -14
27 4 -7 16 31 121 51 143 24 27 42 -11 49 -108 l8 -92 36 44 c20 23 52 59 72
79 l35 36 -27 11 c-16 6 -28 7 -28 2 0 -5 6 -10 13 -13 9 -3 8 -9 -4 -21 -12
-13 -21 -15 -42 -7 -31 12 -38 51 -9 51 9 1 -10 10 -43 20 -33 11 -68 25 -77
30 -19 11 -24 1 -10 -15 5 -6 -2 -37 -14 -70 -13 -35 -24 -54 -27 -45 -3 8
-16 51 -29 95 l-24 80 -29 -79z m273 -84 c9 -6 6 -14 -11 -30 l-23 -22 -2 30
c-2 30 10 38 36 22z"/>
<path d="M1626 972 c-3 -5 1 -9 9 -9 8 0 12 4 9 9 -3 4 -7 8 -9 8 -2 0 -6 -4
-9 -8z"/>
<path d="M2470 862 c0 -39 -33 -147 -49 -159 -13 -12 -13 -13 1 -13 9 0 25 -3
35 -7 15 -6 16 -4 6 8 -12 15 -7 85 6 93 4 3 17 -22 31 -54 20 -48 30 -60 58
-68 28 -9 31 -8 22 3 -17 21 18 165 39 165 35 0 39 -12 27 -89 -9 -58 -16 -76
-31 -82 -19 -7 -19 -8 1 -8 12 -1 37 -4 55 -7 26 -4 30 -3 18 5 -14 9 -15 19
-7 63 14 88 18 98 34 98 8 0 13 4 10 9 -3 4 -33 11 -66 15 -34 4 -69 10 -78
13 -14 5 -15 4 -6 -8 8 -10 8 -30 1 -71 -6 -32 -14 -58 -17 -58 -4 0 -21 35
-40 78 -38 88 -50 106 -50 74z"/>
<path d="M3178 801 l-26 -59 -56 -7 c-31 -4 -56 -10 -56 -14 1 -3 19 -19 41
-36 l40 -30 -6 -70 c-3 -38 -2 -65 2 -60 4 6 28 23 54 37 l45 27 52 -29 c29
-15 52 -25 52 -22 0 4 -6 30 -14 57 l-13 50 44 46 44 46 -55 6 c-70 7 -73 9
-101 68 l-22 48 -25 -58z m37 -31 c-3 -4 2 -11 11 -14 9 -3 14 -12 11 -19 -3
-7 3 -13 12 -14 44 -3 61 -8 61 -16 0 -5 -7 -7 -14 -4 -10 4 -13 1 -9 -9 3 -8
1 -20 -5 -27 -5 -6 -8 -29 -7 -50 l3 -38 -25 17 c-14 9 -22 11 -19 5 5 -7 1
-9 -8 -5 -19 7 -21 20 -3 27 9 4 9 6 -1 6 -7 1 -15 -6 -18 -14 -9 -23 -38 -35
-55 -23 -11 8 -10 9 6 4 17 -5 18 -4 5 6 -9 7 -14 20 -12 29 1 9 -4 24 -13 33
-22 21 -27 53 -9 53 8 0 14 -4 14 -9 0 -4 4 -8 10 -8 5 0 6 8 3 18 -6 15 -5
16 12 2 17 -14 18 -13 12 4 -5 12 -3 22 5 27 7 5 14 13 14 19 3 20 4 21 14 15
6 -4 8 -10 5 -15z"/>
<path d="M3548 842 l-68 -15 1 -36 1 -36 12 28 c14 32 32 47 57 47 12 0 20
-17 29 -62 6 -35 14 -71 17 -80 3 -14 -2 -18 -28 -18 -19 0 -37 7 -45 18 -11
14 -13 14 -14 2 0 -39 14 -43 91 -29 41 7 66 15 57 17 -19 4 -21 10 -38 95 -9
45 -9 61 0 72 14 17 16 17 -72 -3z"/>
<path d="M2790 808 c0 -5 5 -8 10 -8 6 0 10 -18 10 -41 0 -45 -16 -49 -37 -8
-13 24 -13 24 -13 -8 0 -17 -3 -40 -6 -50 -5 -17 -5 -17 9 0 23 27 37 20 37
-19 0 -33 -2 -35 -27 -32 -17 2 -32 12 -40 28 l-13 25 0 -32 c0 -31 2 -33 33
-33 17 0 50 -3 72 -6 27 -4 35 -2 27 4 -18 12 -3 168 16 165 7 -2 12 1 12 6 0
5 -20 11 -45 13 -25 2 -45 0 -45 -4z"/>
<path d="M3533 777 c4 -10 7 -32 7 -48 0 -16 5 -29 10 -29 6 0 10 9 10 19 0
11 3 21 8 23 4 2 -4 14 -17 28 -18 19 -23 20 -18 7z"/>
<path d="M4212 5494 c10 -10 20 -16 22 -13 3 3 -5 11 -17 18 -21 13 -21 12 -5
-5z"/>
</g>
</svg>
